<?xml version="1.0" encoding="UTF-8"?>
<svg width="561px" height="165px" viewBox="0 0 561 165" version="1.1" xmlns="http://www.w3.org/2000/svg" xmlns:xlink="http://www.w3.org/1999/xlink">
    <title>Artboard Copy 17</title>
    <g id="Artboard-Copy-17" stroke="none" stroke-width="1" fill="none" fill-rule="evenodd">
        <path d="M52.695,130.33 C55.4816667,130.33 58.1416667,130.171667 60.675,129.855 C63.2083333,129.538333 65.1716667,129.19 66.565,128.81 L66.565,128.81 L66.565,37.8 L89.745,37.8 C93.0383333,37.8 95.635,36.7866667 97.535,34.76 C99.435,32.7333333 100.385,29.63 100.385,25.45 C100.385,23.0433333 100.068333,20.8266667 99.435,18.8 C98.8016667,16.7733333 98.0416667,15.1266667 97.155,13.86 L97.155,13.86 L14.125,13.86 C10.8316667,13.86 8.235,14.8416667 6.335,16.805 C4.435,18.7683333 3.485,21.9033333 3.485,26.21 C3.485,28.6166667 3.83333333,30.8333333 4.53,32.86 C5.22666667,34.8866667 5.955,36.5333333 6.715,37.8 L6.715,37.8 L36.545,37.8 L36.545,116.27 C36.545,121.59 37.7483333,125.263333 40.155,127.29 C42.5616667,129.316667 46.7416667,130.33 52.695,130.33 Z M151.485,131.85 C158.705,131.85 165.291667,131.121667 171.245,129.665 C177.198333,128.208333 182.201667,126.213333 186.255,123.68 C191.448333,120.513333 194.045,115.953333 194.045,110 L194.045,110 L194.045,49.96 C194.045,44.64 192.778333,41.03 190.245,39.13 C187.711667,37.23 183.595,36.28 177.895,36.28 C175.108333,36.28 172.575,36.47 170.295,36.85 C168.015,37.23 166.241667,37.61 164.975,37.99 L164.975,37.99 L164.975,106.39 C163.835,107.023333 162.156667,107.625 159.94,108.195 C157.723333,108.765 154.968333,109.05 151.675,109.05 C146.355,109.05 142.238333,107.815 139.325,105.345 C136.411667,102.875 134.955,98.79 134.955,93.09 L134.955,93.09 L134.955,49.96 C134.955,44.64 133.72,41.03 131.25,39.13 C128.78,37.23 124.695,36.28 118.995,36.28 C116.208333,36.28 113.675,36.47 111.395,36.85 C109.115,37.23 107.278333,37.61 105.885,37.99 L105.885,37.99 L105.885,93.28 C105.885,100.12 106.993333,105.946667 109.21,110.76 C111.426667,115.573333 114.53,119.563333 118.52,122.73 C122.51,125.896667 127.291667,128.208333 132.865,129.665 C138.438333,131.121667 144.645,131.85 151.485,131.85 Z M227.475,164.53 C230.261667,164.53 232.795,164.34 235.075,163.96 C237.355,163.58 239.128333,163.2 240.395,162.82 L240.395,162.82 L240.395,128.81 C242.675,129.696667 245.208333,130.425 247.995,130.995 C250.781667,131.565 253.821667,131.85 257.115,131.85 C263.828333,131.85 270.035,130.805 275.735,128.715 C281.435,126.625 286.375,123.521667 290.555,119.405 C294.735,115.288333 297.996667,110.158333 300.34,104.015 C302.683333,97.8716667 303.855,90.81 303.855,82.83 C303.855,74.47 302.62,67.25 300.15,61.17 C297.68,55.09 294.228333,50.0866667 289.795,46.16 C285.361667,42.2333333 280.073333,39.3516667 273.93,37.515 C267.786667,35.6783333 261.041667,34.76 253.695,34.76 C246.475,34.76 239.888333,35.5516667 233.935,37.135 C227.981667,38.7183333 223.105,40.7133333 219.305,43.12 C216.771667,44.7666667 214.808333,46.635 213.415,48.725 C212.021667,50.815 211.325,53.5066667 211.325,56.8 L211.325,56.8 L211.325,150.85 C211.325,156.17 212.591667,159.78 215.125,161.68 C217.658333,163.58 221.775,164.53 227.475,164.53 Z M252.745,108.86 C250.211667,108.86 247.931667,108.575 245.905,108.005 C243.878333,107.435 241.978333,106.643333 240.205,105.63 L240.205,105.63 L240.205,60.98 C241.978333,60.0933333 243.941667,59.3016667 246.095,58.605 C248.248333,57.9083333 250.781667,57.56 253.695,57.56 C260.155,57.56 265.19,59.5233333 268.8,63.45 C272.41,67.3766667 274.215,73.8366667 274.215,82.83 C274.215,91.57 272.346667,98.0933333 268.61,102.4 C264.873333,106.706667 259.585,108.86 252.745,108.86 Z M333.295,164.53 C336.081667,164.53 338.615,164.34 340.895,163.96 C343.175,163.58 344.948333,163.2 346.215,162.82 L346.215,162.82 L346.215,128.81 C348.495,129.696667 351.028333,130.425 353.815,130.995 C356.601667,131.565 359.641667,131.85 362.935,131.85 C369.648333,131.85 375.855,130.805 381.555,128.715 C387.255,126.625 392.195,123.521667 396.375,119.405 C400.555,115.288333 403.816667,110.158333 406.16,104.015 C408.503333,97.8716667 409.675,90.81 409.675,82.83 C409.675,74.47 408.44,67.25 405.97,61.17 C403.5,55.09 400.048333,50.0866667 395.615,46.16 C391.181667,42.2333333 385.893333,39.3516667 379.75,37.515 C373.606667,35.6783333 366.861667,34.76 359.515,34.76 C352.295,34.76 345.708333,35.5516667 339.755,37.135 C333.801667,38.7183333 328.925,40.7133333 325.125,43.12 C322.591667,44.7666667 320.628333,46.635 319.235,48.725 C317.841667,50.815 317.145,53.5066667 317.145,56.8 L317.145,56.8 L317.145,150.85 C317.145,156.17 318.411667,159.78 320.945,161.68 C323.478333,163.58 327.595,164.53 333.295,164.53 Z M358.565,108.86 C356.031667,108.86 353.751667,108.575 351.725,108.005 C349.698333,107.435 347.798333,106.643333 346.025,105.63 L346.025,105.63 L346.025,60.98 C347.798333,60.0933333 349.761667,59.3016667 351.915,58.605 C354.068333,57.9083333 356.601667,57.56 359.515,57.56 C365.975,57.56 371.01,59.5233333 374.62,63.45 C378.23,67.3766667 380.035,73.8366667 380.035,82.83 C380.035,91.57 378.166667,98.0933333 374.43,102.4 C370.693333,106.706667 365.405,108.86 358.565,108.86 Z M440.065,130.33 C442.851667,130.33 445.385,130.171667 447.665,129.855 C449.945,129.538333 451.781667,129.19 453.175,128.81 L453.175,128.81 L453.175,17.28 C453.175,11.96 451.908333,8.35 449.375,6.45 C446.841667,4.55 442.788333,3.6 437.215,3.6 C434.428333,3.6 431.863333,3.79 429.52,4.17 C427.176667,4.55 425.371667,4.93 424.105,5.31 L424.105,5.31 L424.105,116.84 C424.105,122.16 425.34,125.738333 427.81,127.575 C430.28,129.411667 434.365,130.33 440.065,130.33 Z M519.095,131.85 C524.161667,131.85 528.816667,131.501667 533.06,130.805 C537.303333,130.108333 540.976667,129.031667 544.08,127.575 C547.183333,126.118333 549.621667,124.313333 551.395,122.16 C553.168333,120.006667 554.055,117.473333 554.055,114.56 C554.055,112.153333 553.421667,109.936667 552.155,107.91 C550.888333,105.883333 549.305,104.236667 547.405,102.97 C544.491667,104.743333 540.691667,106.358333 536.005,107.815 C531.318333,109.271667 526.315,110 520.995,110 C515.168333,110 510.038333,108.891667 505.605,106.675 C501.171667,104.458333 498.068333,100.69 496.295,95.37 L496.295,95.37 L545.695,87.96 C549.621667,87.3266667 552.661667,85.9966667 554.815,83.97 C556.968333,81.9433333 558.045,78.9033333 558.045,74.85 C558.045,69.0233333 556.968333,63.64 554.815,58.7 C552.661667,53.76 549.653333,49.5166667 545.79,45.97 C541.926667,42.4233333 537.303333,39.6683333 531.92,37.705 C526.536667,35.7416667 520.615,34.76 514.155,34.76 C508.201667,34.76 502.406667,35.6783333 496.77,37.515 C491.133333,39.3516667 486.13,42.2333333 481.76,46.16 C477.39,50.0866667 473.906667,55.0266667 471.31,60.98 C468.713333,66.9333333 467.415,73.9633333 467.415,82.07 C467.415,90.43 468.713333,97.7133333 471.31,103.92 C473.906667,110.126667 477.485,115.288333 482.045,119.405 C486.605,123.521667 492.051667,126.625 498.385,128.715 C504.718333,130.805 511.621667,131.85 519.095,131.85 Z M494.395,75.8 C495.028333,69.4666667 497.15,64.6216667 500.76,61.265 C504.37,57.9083333 508.898333,56.23 514.345,56.23 C519.665,56.23 523.655,57.6866667 526.315,60.6 C528.975,63.5133333 530.431667,66.6166667 530.685,69.91 L530.685,69.91 L494.395,75.8 Z" id="Tupple" fill="#FF5959" fill-rule="nonzero"></path>
    </g>
</svg>