<?xml version="1.0" encoding="UTF-8"?>
<svg width="712px" height="165px" viewBox="0 0 712 165" version="1.1" xmlns="http://www.w3.org/2000/svg" xmlns:xlink="http://www.w3.org/1999/xlink">
    <title>Artboard Copy 21</title>
    <g id="Artboard-Copy-21" stroke="none" stroke-width="1" fill="none" fill-rule="evenodd">
        <path d="M52.695,130.33 C55.4816667,130.33 58.1416667,130.171667 60.675,129.855 C63.2083333,129.538333 65.1716667,129.19 66.565,128.81 L66.565,128.81 L66.565,37.8 L89.745,37.8 C93.0383333,37.8 95.635,36.7866667 97.535,34.76 C99.435,32.7333333 100.385,29.63 100.385,25.45 C100.385,23.0433333 100.068333,20.8266667 99.435,18.8 C98.8016667,16.7733333 98.0416667,15.1266667 97.155,13.86 L97.155,13.86 L14.125,13.86 C10.8316667,13.86 8.235,14.8416667 6.335,16.805 C4.435,18.7683333 3.485,21.9033333 3.485,26.21 C3.485,28.6166667 3.83333333,30.8333333 4.53,32.86 C5.22666667,34.8866667 5.955,36.5333333 6.715,37.8 L6.715,37.8 L36.545,37.8 L36.545,116.27 C36.545,121.59 37.7483333,125.263333 40.155,127.29 C42.5616667,129.316667 46.7416667,130.33 52.695,130.33 Z M151.485,131.85 C158.705,131.85 165.291667,131.121667 171.245,129.665 C177.198333,128.208333 182.201667,126.213333 186.255,123.68 C191.448333,120.513333 194.045,115.953333 194.045,110 L194.045,110 L194.045,49.96 C194.045,44.64 192.778333,41.03 190.245,39.13 C187.711667,37.23 183.595,36.28 177.895,36.28 C175.108333,36.28 172.575,36.47 170.295,36.85 C168.015,37.23 166.241667,37.61 164.975,37.99 L164.975,37.99 L164.975,106.39 C163.835,107.023333 162.156667,107.625 159.94,108.195 C157.723333,108.765 154.968333,109.05 151.675,109.05 C146.355,109.05 142.238333,107.815 139.325,105.345 C136.411667,102.875 134.955,98.79 134.955,93.09 L134.955,93.09 L134.955,49.96 C134.955,44.64 133.72,41.03 131.25,39.13 C128.78,37.23 124.695,36.28 118.995,36.28 C116.208333,36.28 113.675,36.47 111.395,36.85 C109.115,37.23 107.278333,37.61 105.885,37.99 L105.885,37.99 L105.885,93.28 C105.885,100.12 106.993333,105.946667 109.21,110.76 C111.426667,115.573333 114.53,119.563333 118.52,122.73 C122.51,125.896667 127.291667,128.208333 132.865,129.665 C138.438333,131.121667 144.645,131.85 151.485,131.85 Z M227.475,164.53 C230.261667,164.53 232.795,164.34 235.075,163.96 C237.355,163.58 239.128333,163.2 240.395,162.82 L240.395,162.82 L240.395,128.81 C242.675,129.696667 245.208333,130.425 247.995,130.995 C250.781667,131.565 253.821667,131.85 257.115,131.85 C263.828333,131.85 270.035,130.805 275.735,128.715 C281.435,126.625 286.375,123.521667 290.555,119.405 C294.735,115.288333 297.996667,110.158333 300.34,104.015 C302.683333,97.8716667 303.855,90.81 303.855,82.83 C303.855,74.47 302.62,67.25 300.15,61.17 C297.68,55.09 294.228333,50.0866667 289.795,46.16 C285.361667,42.2333333 280.073333,39.3516667 273.93,37.515 C267.786667,35.6783333 261.041667,34.76 253.695,34.76 C246.475,34.76 239.888333,35.5516667 233.935,37.135 C227.981667,38.7183333 223.105,40.7133333 219.305,43.12 C216.771667,44.7666667 214.808333,46.635 213.415,48.725 C212.021667,50.815 211.325,53.5066667 211.325,56.8 L211.325,56.8 L211.325,150.85 C211.325,156.17 212.591667,159.78 215.125,161.68 C217.658333,163.58 221.775,164.53 227.475,164.53 Z M252.745,108.86 C250.211667,108.86 247.931667,108.575 245.905,108.005 C243.878333,107.435 241.978333,106.643333 240.205,105.63 L240.205,105.63 L240.205,60.98 C241.978333,60.0933333 243.941667,59.3016667 246.095,58.605 C248.248333,57.9083333 250.781667,57.56 253.695,57.56 C260.155,57.56 265.19,59.5233333 268.8,63.45 C272.41,67.3766667 274.215,73.8366667 274.215,82.83 C274.215,91.57 272.346667,98.0933333 268.61,102.4 C264.873333,106.706667 259.585,108.86 252.745,108.86 Z M333.295,164.53 C336.081667,164.53 338.615,164.34 340.895,163.96 C343.175,163.58 344.948333,163.2 346.215,162.82 L346.215,162.82 L346.215,128.81 C348.495,129.696667 351.028333,130.425 353.815,130.995 C356.601667,131.565 359.641667,131.85 362.935,131.85 C369.648333,131.85 375.855,130.805 381.555,128.715 C387.255,126.625 392.195,123.521667 396.375,119.405 C400.555,115.288333 403.816667,110.158333 406.16,104.015 C408.503333,97.8716667 409.675,90.81 409.675,82.83 C409.675,74.47 408.44,67.25 405.97,61.17 C403.5,55.09 400.048333,50.0866667 395.615,46.16 C391.181667,42.2333333 385.893333,39.3516667 379.75,37.515 C373.606667,35.6783333 366.861667,34.76 359.515,34.76 C352.295,34.76 345.708333,35.5516667 339.755,37.135 C333.801667,38.7183333 328.925,40.7133333 325.125,43.12 C322.591667,44.7666667 320.628333,46.635 319.235,48.725 C317.841667,50.815 317.145,53.5066667 317.145,56.8 L317.145,56.8 L317.145,150.85 C317.145,156.17 318.411667,159.78 320.945,161.68 C323.478333,163.58 327.595,164.53 333.295,164.53 Z M358.565,108.86 C356.031667,108.86 353.751667,108.575 351.725,108.005 C349.698333,107.435 347.798333,106.643333 346.025,105.63 L346.025,105.63 L346.025,60.98 C347.798333,60.0933333 349.761667,59.3016667 351.915,58.605 C354.068333,57.9083333 356.601667,57.56 359.515,57.56 C365.975,57.56 371.01,59.5233333 374.62,63.45 C378.23,67.3766667 380.035,73.8366667 380.035,82.83 C380.035,91.57 378.166667,98.0933333 374.43,102.4 C370.693333,106.706667 365.405,108.86 358.565,108.86 Z M440.065,130.33 C442.851667,130.33 445.385,130.171667 447.665,129.855 C449.945,129.538333 451.781667,129.19 453.175,128.81 L453.175,128.81 L453.175,17.28 C453.175,11.96 451.908333,8.35 449.375,6.45 C446.841667,4.55 442.788333,3.6 437.215,3.6 C434.428333,3.6 431.863333,3.79 429.52,4.17 C427.176667,4.55 425.371667,4.93 424.105,5.31 L424.105,5.31 L424.105,116.84 C424.105,122.16 425.34,125.738333 427.81,127.575 C430.28,129.411667 434.365,130.33 440.065,130.33 Z M519.095,131.85 C524.161667,131.85 528.816667,131.501667 533.06,130.805 C537.303333,130.108333 540.976667,129.031667 544.08,127.575 C547.183333,126.118333 549.621667,124.313333 551.395,122.16 C553.168333,120.006667 554.055,117.473333 554.055,114.56 C554.055,112.153333 553.421667,109.936667 552.155,107.91 C550.888333,105.883333 549.305,104.236667 547.405,102.97 C544.491667,104.743333 540.691667,106.358333 536.005,107.815 C531.318333,109.271667 526.315,110 520.995,110 C515.168333,110 510.038333,108.891667 505.605,106.675 C501.171667,104.458333 498.068333,100.69 496.295,95.37 L496.295,95.37 L545.695,87.96 C549.621667,87.3266667 552.661667,85.9966667 554.815,83.97 C556.968333,81.9433333 558.045,78.9033333 558.045,74.85 C558.045,69.0233333 556.968333,63.64 554.815,58.7 C552.661667,53.76 549.653333,49.5166667 545.79,45.97 C541.926667,42.4233333 537.303333,39.6683333 531.92,37.705 C526.536667,35.7416667 520.615,34.76 514.155,34.76 C508.201667,34.76 502.406667,35.6783333 496.77,37.515 C491.133333,39.3516667 486.13,42.2333333 481.76,46.16 C477.39,50.0866667 473.906667,55.0266667 471.31,60.98 C468.713333,66.9333333 467.415,73.9633333 467.415,82.07 C467.415,90.43 468.713333,97.7133333 471.31,103.92 C473.906667,110.126667 477.485,115.288333 482.045,119.405 C486.605,123.521667 492.051667,126.625 498.385,128.715 C504.718333,130.805 511.621667,131.85 519.095,131.85 Z M494.395,75.8 C495.028333,69.4666667 497.15,64.6216667 500.76,61.265 C504.37,57.9083333 508.898333,56.23 514.345,56.23 C519.665,56.23 523.655,57.6866667 526.315,60.6 C528.975,63.5133333 530.431667,66.6166667 530.685,69.91 L530.685,69.91 L494.395,75.8 Z" id="Tupple" fill="#FF5959" fill-rule="nonzero"></path>
        <path d="M594.744,125.99 C597.384,125.99 599.771,125.627 601.905,124.901 C604.039,124.175 605.865,123.097 607.383,121.667 C608.901,120.237 610.078,118.466 610.914,116.354 C611.75,114.242 612.168,111.8 612.168,109.028 C612.168,106.256 611.772,103.825 610.98,101.735 C610.188,99.645 609.099,97.896 607.713,96.488 C606.327,95.08 604.688,94.024 602.796,93.32 C600.904,92.616 598.88,92.264 596.724,92.264 C595.36,92.264 594.106,92.407 592.962,92.693 C591.818,92.979 590.806,93.32 589.926,93.716 L589.926,93.716 L589.926,86.192 C589.926,84.344 589.497,83.09 588.639,82.43 C587.781,81.77 586.362,81.44 584.382,81.44 C583.414,81.44 582.534,81.506 581.742,81.638 C580.95,81.77 580.312,81.902 579.828,82.034 L579.828,82.034 L579.828,117.608 C579.828,119.676 580.774,121.348 582.666,122.624 C583.986,123.548 585.636,124.34 587.616,125 C589.596,125.66 591.972,125.99 594.744,125.99 Z M594.612,118.004 C593.556,118.004 592.632,117.894 591.84,117.674 C591.048,117.454 590.388,117.168 589.86,116.816 L589.86,116.816 L589.86,101.702 C590.564,101.262 591.323,100.899 592.137,100.613 C592.951,100.327 593.864,100.184 594.876,100.184 C596.988,100.184 598.671,100.888 599.925,102.296 C601.179,103.704 601.806,105.948 601.806,109.028 C601.806,112.02 601.157,114.264 599.859,115.76 C598.561,117.256 596.812,118.004 594.612,118.004 Z M634.608,125.99 C636.368,125.99 637.985,125.869 639.459,125.627 C640.933,125.385 642.209,125.011 643.287,124.505 C644.365,123.999 645.212,123.372 645.828,122.624 C646.444,121.876 646.752,120.996 646.752,119.984 C646.752,119.148 646.532,118.378 646.092,117.674 C645.652,116.97 645.102,116.398 644.442,115.958 C643.43,116.574 642.11,117.135 640.482,117.641 C638.854,118.147 637.116,118.4 635.268,118.4 C633.244,118.4 631.462,118.015 629.922,117.245 C628.382,116.475 627.304,115.166 626.688,113.318 L626.688,113.318 L643.848,110.744 C645.212,110.524 646.268,110.062 647.016,109.358 C647.764,108.654 648.138,107.598 648.138,106.19 C648.138,104.166 647.764,102.296 647.016,100.58 C646.268,98.864 645.223,97.39 643.881,96.158 C642.539,94.926 640.933,93.969 639.063,93.287 C637.193,92.605 635.136,92.264 632.892,92.264 C630.824,92.264 628.811,92.583 626.853,93.221 C624.895,93.859 623.157,94.86 621.639,96.224 C620.121,97.588 618.911,99.304 618.009,101.372 C617.107,103.44 616.656,105.882 616.656,108.698 C616.656,111.602 617.107,114.132 618.009,116.288 C618.911,118.444 620.154,120.237 621.738,121.667 C623.322,123.097 625.214,124.175 627.414,124.901 C629.614,125.627 632.012,125.99 634.608,125.99 Z M626.028,106.52 C626.248,104.32 626.985,102.637 628.239,101.471 C629.493,100.305 631.066,99.722 632.958,99.722 C634.806,99.722 636.192,100.228 637.116,101.24 C638.04,102.252 638.546,103.33 638.634,104.474 L638.634,104.474 L626.028,106.52 Z M665.826,125.99 C668.818,125.99 670.919,125.495 672.129,124.505 C673.339,123.515 673.944,122.25 673.944,120.71 C673.944,119.962 673.812,119.302 673.548,118.73 C673.284,118.158 672.954,117.652 672.558,117.212 C672.03,117.432 671.392,117.619 670.644,117.773 C669.896,117.927 669.192,118.004 668.532,118.004 C667.124,118.004 666.024,117.729 665.232,117.179 C664.44,116.629 664.044,115.738 664.044,114.506 L664.044,114.506 L664.044,101.702 L670.71,101.702 C671.722,101.702 672.547,101.394 673.185,100.778 C673.823,100.162 674.142,99.15 674.142,97.742 C674.142,96.994 674.032,96.279 673.812,95.597 C673.592,94.915 673.372,94.354 673.152,93.914 L673.152,93.914 L664.044,93.914 L664.044,89.624 C664.044,87.82 663.615,86.577 662.757,85.895 C661.899,85.213 660.502,84.872 658.566,84.872 C657.642,84.872 656.784,84.949 655.992,85.103 C655.2,85.257 654.562,85.4 654.078,85.532 L654.078,85.532 L654.078,115.166 C654.078,118.994 655.112,121.755 657.18,123.449 C659.248,125.143 662.13,125.99 665.826,125.99 Z M693.084,126.056 C695.592,126.056 697.836,125.836 699.816,125.396 C701.796,124.956 703.468,124.318 704.832,123.482 C705.668,122.998 706.383,122.415 706.977,121.733 C707.571,121.051 707.868,120.138 707.868,118.994 L707.868,118.994 L707.868,104.078 C707.868,102.054 707.505,100.294 706.779,98.798 C706.053,97.302 705.03,96.07 703.71,95.102 C702.39,94.134 700.795,93.419 698.925,92.957 C697.055,92.495 694.976,92.264 692.688,92.264 C691.06,92.264 689.399,92.385 687.705,92.627 C686.011,92.869 684.526,93.232 683.25,93.716 C681.226,94.552 680.214,95.938 680.214,97.874 C680.214,98.71 680.401,99.491 680.775,100.217 C681.149,100.943 681.6,101.482 682.128,101.834 C683.404,101.306 684.845,100.844 686.451,100.448 C688.057,100.052 689.696,99.854 691.368,99.854 C693.524,99.854 695.174,100.184 696.318,100.844 C697.462,101.504 698.034,102.538 698.034,103.946 L698.034,103.946 L698.034,104.672 L689.256,105.596 C685.516,105.992 682.744,106.982 680.94,108.566 C679.136,110.15 678.234,112.46 678.234,115.496 C678.234,119.06 679.576,121.711 682.26,123.449 C684.944,125.187 688.552,126.056 693.084,126.056 Z M693.084,118.598 C691.28,118.598 689.982,118.29 689.19,117.674 C688.398,117.058 688.002,116.222 688.002,115.166 C688.002,114.154 688.431,113.395 689.289,112.889 C690.147,112.383 691.28,112.064 692.688,111.932 L692.688,111.932 L698.1,111.47 L698.1,117.542 C697.616,117.85 696.901,118.103 695.955,118.301 C695.009,118.499 694.052,118.598 693.084,118.598 Z" id="beta" fill="#33009D" fill-rule="nonzero"></path>
    </g>
</svg>