<?xml version="1.0" encoding="UTF-8"?>
<svg width="217px" height="91px" viewBox="0 0 217 91" version="1.1" xmlns="http://www.w3.org/2000/svg" xmlns:xlink="http://www.w3.org/1999/xlink">
    <title>TuppleLockup</title>
    <g id="TuppleLockup" stroke="none" stroke-width="1" fill="none" fill-rule="evenodd">
        <path d="M38.4996459,40.1617473 C39.3773607,40.1617473 40.2151794,40.1115702 41.013102,40.0112161 C41.8110246,39.9108619 42.4294145,39.8004723 42.868272,39.6800472 L42.868272,39.6800472 L42.868272,10.8382527 L50.1692635,10.8382527 C51.2065628,10.8382527 52.0244334,10.5171192 52.6228754,9.87485242 C53.2213173,9.2325856 53.5205382,8.24911452 53.5205382,6.9244392 C53.5205382,6.16174734 53.4207979,5.459268 53.2213173,4.81700118 C53.0218366,4.17473436 52.7824599,3.65289256 52.503187,3.2514758 L52.503187,3.2514758 L26.3512748,3.2514758 C25.3139754,3.2514758 24.4961048,3.56257379 23.8976629,4.18476978 C23.299221,4.80696576 23,5.80047226 23,7.16528926 C23,7.92798111 23.1097144,8.63046045 23.3291431,9.27272727 C23.5485718,9.9149941 23.7779745,10.4368359 24.0173513,10.8382527 L24.0173513,10.8382527 L33.4128895,10.8382527 L33.4128895,35.7060213 C33.4128895,37.3919717 33.7919027,38.5560803 34.5499292,39.1983471 C35.3079556,39.8406139 36.6245279,40.1617473 38.4996459,40.1617473 Z M68.4815864,40.6434475 C70.7556657,40.6434475 72.8302644,40.4126328 74.7053824,39.9510035 C76.5805005,39.4893743 78.1563975,38.8571429 79.4330737,38.0543093 C81.0688149,37.0507674 81.8866856,35.6056671 81.8866856,33.7190083 L81.8866856,33.7190083 L81.8866856,14.6918536 C81.8866856,13.0059032 81.4877243,11.8618654 80.6898017,11.2597403 C79.8918791,10.6576151 78.595255,10.3565525 76.7999292,10.3565525 C75.9222144,10.3565525 75.1242918,10.4167651 74.4061615,10.5371901 C73.6880312,10.6576151 73.1294854,10.7780401 72.7305241,10.8984652 L72.7305241,10.8984652 L72.7305241,32.5749705 C72.3714589,32.7756789 71.8428352,32.9663518 71.144653,33.1469894 C70.4464707,33.3276269 69.5787299,33.4179457 68.5414306,33.4179457 C66.8657932,33.4179457 65.569169,33.0265643 64.6515581,32.2438017 C63.7339471,31.461039 63.2751416,30.1664699 63.2751416,28.3600945 L63.2751416,28.3600945 L63.2751416,14.6918536 C63.2751416,13.0059032 62.8861544,11.8618654 62.1081799,11.2597403 C61.3302054,10.6576151 60.0435552,10.3565525 58.2482295,10.3565525 C57.3705146,10.3565525 56.5725921,10.4167651 55.8544618,10.5371901 C55.1363314,10.6576151 54.5578376,10.7780401 54.1189802,10.8984652 L54.1189802,10.8984652 L54.1189802,28.420307 C54.1189802,30.5879575 54.4680713,32.4344746 55.1662535,33.9598583 C55.8644358,35.485242 56.8418909,36.7497048 58.098619,37.7532468 C59.355347,38.7567887 60.8614259,39.4893743 62.6168555,39.9510035 C64.3722852,40.4126328 66.3271955,40.6434475 68.4815864,40.6434475 Z M91.2822238,51 C92.1599386,51 92.9578612,50.9397875 93.6759915,50.8193625 C94.3941218,50.6989374 94.9526676,50.5785124 95.3516289,50.4580874 L95.3516289,50.4580874 L95.3516289,39.6800472 C96.0697592,39.961039 96.8676818,40.1918536 97.7453966,40.3724911 C98.6231114,40.5531287 99.5806185,40.6434475 100.617918,40.6434475 C102.732413,40.6434475 104.687323,40.3122786 106.482649,39.649941 C108.277975,38.9876033 109.833924,38.0041322 111.150496,36.6995277 C112.467068,35.3949233 113.494393,33.7691854 114.232472,31.822314 C114.97055,29.8754427 115.339589,27.6375443 115.339589,25.1086187 C115.339589,22.459268 114.950602,20.1711924 114.172627,18.244392 C113.394653,16.3175915 112.307483,14.7319953 110.911119,13.4876033 C109.514754,12.2432113 107.849091,11.3299882 105.914129,10.7479339 C103.979167,10.1658796 101.854698,9.87485242 99.5407224,9.87485242 C97.2666431,9.87485242 95.1920444,10.1257379 93.3169263,10.6275089 C91.4418083,11.1292798 89.9058074,11.7615112 88.7089235,12.5242031 C87.9110009,13.0460449 87.292611,13.6381346 86.8537535,14.3004723 C86.4148961,14.9628099 86.1954674,15.8158205 86.1954674,16.8595041 L86.1954674,16.8595041 L86.1954674,46.6646989 C86.1954674,48.3506494 86.5944287,49.4946871 87.3923513,50.0968123 C88.1902738,50.6989374 89.486898,51 91.2822238,51 Z M99.2415014,33.3577332 C98.4435788,33.3577332 97.7254485,33.2674144 97.0871105,33.0867769 C96.4487724,32.9061393 95.8503305,32.6552538 95.2917847,32.3341204 L95.2917847,32.3341204 L95.2917847,18.1841795 C95.8503305,17.9031877 96.4687205,17.6523022 97.1469547,17.431523 C97.8251889,17.2107438 98.6231114,17.1003542 99.5407224,17.1003542 C101.575425,17.1003542 103.161296,17.7225502 104.298336,18.9669421 C105.435375,20.2113341 106.003895,22.2585596 106.003895,25.1086187 C106.003895,27.8783943 105.415427,29.9456907 104.238492,31.3105077 C103.061556,32.6753247 101.395892,33.3577332 99.2415014,33.3577332 Z M123.478399,51 C124.356114,51 125.154037,50.9397875 125.872167,50.8193625 C126.590297,50.6989374 127.148843,50.5785124 127.547805,50.4580874 L127.547805,50.4580874 L127.547805,39.6800472 C128.265935,39.961039 129.063857,40.1918536 129.941572,40.3724911 C130.819287,40.5531287 131.776794,40.6434475 132.814093,40.6434475 C134.928588,40.6434475 136.883499,40.3122786 138.678824,39.649941 C140.47415,38.9876033 142.030099,38.0041322 143.346671,36.6995277 C144.663244,35.3949233 145.690569,33.7691854 146.428647,31.822314 C147.166726,29.8754427 147.535765,27.6375443 147.535765,25.1086187 C147.535765,22.459268 147.146778,20.1711924 146.368803,18.244392 C145.590829,16.3175915 144.503659,14.7319953 143.107295,13.4876033 C141.71093,12.2432113 140.045267,11.3299882 138.110305,10.7479339 C136.175342,10.1658796 134.050873,9.87485242 131.736898,9.87485242 C129.462819,9.87485242 127.38822,10.1257379 125.513102,10.6275089 C123.637984,11.1292798 122.101983,11.7615112 120.905099,12.5242031 C120.107177,13.0460449 119.488787,13.6381346 119.049929,14.3004723 C118.611072,14.9628099 118.391643,15.8158205 118.391643,16.8595041 L118.391643,16.8595041 L118.391643,46.6646989 C118.391643,48.3506494 118.790604,49.4946871 119.588527,50.0968123 C120.386449,50.6989374 121.683074,51 123.478399,51 Z M131.437677,33.3577332 C130.639754,33.3577332 129.921624,33.2674144 129.283286,33.0867769 C128.644948,32.9061393 128.046506,32.6552538 127.48796,32.3341204 L127.48796,32.3341204 L127.48796,18.1841795 C128.046506,17.9031877 128.664896,17.6523022 129.34313,17.431523 C130.021364,17.2107438 130.819287,17.1003542 131.736898,17.1003542 C133.771601,17.1003542 135.357472,17.7225502 136.494511,18.9669421 C137.631551,20.2113341 138.200071,22.2585596 138.200071,25.1086187 C138.200071,27.8783943 137.611603,29.9456907 136.434667,31.3105077 C135.257731,32.6753247 133.592068,33.3577332 131.437677,33.3577332 Z M155.973796,40.1617473 C156.851511,40.1617473 157.649433,40.1115702 158.367564,40.0112161 C159.085694,39.9108619 159.664188,39.8004723 160.103045,39.6800472 L160.103045,39.6800472 L160.103045,4.33530106 C160.103045,2.64935065 159.704084,1.50531287 158.906161,0.903187721 C158.108239,0.301062574 156.831563,0 155.076133,0 C154.198418,0 153.390522,0.0602125148 152.652443,0.180637544 C151.914365,0.301062574 151.345845,0.421487603 150.946884,0.541912633 L150.946884,0.541912633 L150.946884,35.8866588 C150.946884,37.5726092 151.335871,38.7066116 152.113846,39.2886659 C152.89182,39.8707202 154.17847,40.1617473 155.973796,40.1617473 Z M179.731941,40.6434475 C181.327786,40.6434475 182.793968,40.5330579 184.130489,40.3122786 C185.467009,40.0914994 186.623997,39.7502952 187.601452,39.2886659 C188.578907,38.8270366 189.346907,38.2550177 189.905453,37.5726092 C190.463999,36.8902007 190.743272,36.0873672 190.743272,35.1641086 C190.743272,34.4014168 190.543791,33.6989374 190.14483,33.0566706 C189.745869,32.4144038 189.247167,31.892562 188.648725,31.4911452 C187.731114,32.0531287 186.53423,32.5649351 185.058074,33.0265643 C183.581917,33.4881936 182.00602,33.7190083 180.330382,33.7190083 C178.495161,33.7190083 176.879367,33.3677686 175.483003,32.6652893 C174.086638,31.9628099 173.109183,30.768595 172.550637,29.0826446 L172.550637,29.0826446 L188.110127,26.7343566 C189.346907,26.5336482 190.304415,26.1121606 190.982649,25.4698937 C191.660883,24.8276269 192,23.8642267 192,22.579693 C192,20.7331759 191.660883,19.0271547 190.982649,17.4616293 C190.304415,15.8961039 189.356881,14.5513577 188.14005,13.4273908 C186.923218,12.3034238 185.467009,11.4303424 183.771424,10.8081464 C182.075838,10.1859504 180.210694,9.87485242 178.175992,9.87485242 C176.300873,9.87485242 174.475626,10.1658796 172.700248,10.7479339 C170.92487,11.3299882 169.348973,12.2432113 167.972557,13.4876033 C166.59614,14.7319953 165.498997,16.2975207 164.681126,18.1841795 C163.863255,20.0708383 163.45432,22.2987013 163.45432,24.8677686 C163.45432,27.5171192 163.863255,29.8252656 164.681126,31.7922078 C165.498997,33.7591499 166.626062,35.3949233 168.062323,36.6995277 C169.498584,38.0041322 171.214117,38.9876033 173.208924,39.649941 C175.20373,40.3122786 177.378069,40.6434475 179.731941,40.6434475 Z M171.952195,22.8807556 C172.151676,20.8736718 172.819936,19.3382527 173.956976,18.2744982 C175.094016,17.2107438 176.520302,16.6788666 178.235836,16.6788666 C179.911473,16.6788666 181.168201,17.1404959 182.00602,18.0637544 C182.843839,18.987013 183.302644,19.9704841 183.382436,21.0141677 L183.382436,21.0141677 L171.952195,22.8807556 Z" id="Tupple" fill="#FF5959" fill-rule="nonzero"></path>
        <path d="M2.69326241,85.2068966 C3.16351458,85.2068966 3.61239165,85.1800766 4.03989362,85.1264368 C4.46739559,85.0727969 4.79870961,85.0137931 5.0338357,84.9494253 L5.0338357,84.9494253 L5.0338357,67.537931 C5.0338357,66.5938697 4.82542849,65.9609195 4.40861407,65.6390805 C3.99179965,65.3172414 3.30245272,65.1563218 2.34057329,65.1563218 C1.89169622,65.1563218 1.44816292,65.1885057 1.0099734,65.2528736 C0.571783885,65.3172414 0.235126084,65.3708812 0,65.4137931 L0,65.4137931 L0,82.8252874 C0,83.7264368 0.197719661,84.348659 0.593158983,84.691954 C0.988598306,85.035249 1.68863278,85.2068966 2.69326241,85.2068966 Z M13.5625,85.4643678 C15.0160067,85.4643678 16.0366677,85.2229885 16.6244829,84.7402299 C17.2122981,84.2574713 17.5062057,83.640613 17.5062057,82.8896552 C17.5062057,82.5249042 17.4420804,82.2030651 17.3138298,81.9241379 C17.1855792,81.6452107 17.025266,81.3984674 16.8328901,81.183908 C16.5763889,81.2911877 16.26645,81.3823755 15.9030733,81.4574713 C15.5396966,81.532567 15.197695,81.5701149 14.8770686,81.5701149 C14.1930654,81.5701149 13.6586879,81.4360153 13.2739362,81.1678161 C12.8891844,80.8996169 12.6968085,80.4651341 12.6968085,79.8643678 L12.6968085,79.8643678 L12.6968085,73.6206897 L15.9351359,73.6206897 C16.4267632,73.6206897 16.8275463,73.4704981 17.1374852,73.1701149 C17.4474242,72.8697318 17.6023936,72.3762452 17.6023936,71.6896552 C17.6023936,71.3249042 17.5489559,70.9762452 17.4420804,70.6436782 C17.3352049,70.3111111 17.2283294,70.0375479 17.1214539,69.8229885 L17.1214539,69.8229885 L12.6968085,69.8229885 L12.6968085,67.7310345 C12.6968085,66.851341 12.4884013,66.2452107 12.0715869,65.9126437 C11.6547725,65.5800766 10.9761131,65.4137931 10.0356087,65.4137931 C9.58673168,65.4137931 9.16991726,65.451341 8.78516548,65.5264368 C8.40041371,65.6015326 8.09047478,65.6712644 7.8553487,65.7356322 L7.8553487,65.7356322 L7.8553487,80.1862069 C7.8553487,82.0528736 8.35766351,83.3992337 9.36229314,84.2252874 C10.3669228,85.051341 11.7669917,85.4643678 13.5625,85.4643678 Z M19.9750296,71.3678161 C20.4025315,71.3678161 20.7552206,71.2819923 21.0330969,71.1103448 C21.3109732,70.9386973 21.5567868,70.6812261 21.7705378,70.337931 C21.9629137,70.0375479 22.144602,69.651341 22.3156028,69.1793103 C22.4866036,68.7072797 22.6469169,68.2137931 22.7965426,67.6988506 C22.9461682,67.183908 23.0637313,66.6689655 23.1492317,66.154023 C23.2347321,65.6390805 23.2774823,65.1885057 23.2774823,64.8022989 C23.2774823,64.1157088 23.0477,63.6436782 22.5881353,63.3862069 C22.1285707,63.1287356 21.599537,63 21.0010343,63 C20.6162825,63 20.226187,63.0590038 19.8307476,63.1770115 C19.4353083,63.2950192 19.0986505,63.4183908 18.8207742,63.5471264 C18.7993991,64.0835249 18.7619927,64.6628352 18.708555,65.2850575 C18.6551172,65.9072797 18.6016795,66.5402299 18.5482417,67.183908 C18.494804,67.8275862 18.4360225,68.4659004 18.3718972,69.0988506 C18.3077719,69.7318008 18.2543341,70.337931 18.2115839,70.9172414 C18.4680851,71.045977 18.7406176,71.1532567 19.0291814,71.2390805 C19.3177453,71.3249042 19.633028,71.3678161 19.9750296,71.3678161 Z M29.0487589,85.4965517 C31.3358944,85.4965517 33.0672774,85.051341 34.2429078,84.1609195 C35.4185382,83.2704981 36.0063534,82.0314176 36.0063534,80.4436782 C36.0063534,79.1563218 35.589539,78.1049808 34.7559102,77.2896552 C33.9222813,76.4743295 32.5328999,75.8521073 30.587766,75.4229885 L30.587766,75.4229885 L29.3693853,75.1333333 C28.7495075,74.9831418 28.3220055,74.8222222 28.0868794,74.6505747 C27.8517533,74.4789272 27.7341903,74.2429119 27.7341903,73.9425287 C27.7341903,73.5348659 27.9425975,73.2291188 28.3594119,73.0252874 C28.7762264,72.8214559 29.3586978,72.7195402 30.1068262,72.7195402 C30.4702029,72.7195402 30.8656422,72.7517241 31.2931442,72.816092 C31.7206462,72.8804598 32.126773,72.9662835 32.5115248,73.0735632 C32.8962766,73.1808429 33.2543095,73.2988506 33.5856235,73.4275862 C33.9169375,73.5563218 34.168095,73.6743295 34.3390957,73.7816092 C34.616972,73.5670498 34.8414106,73.2934866 35.0124113,72.9609195 C35.1834121,72.6283525 35.2689125,72.2475096 35.2689125,71.8183908 C35.2689125,71.3463602 35.1246306,70.9333333 34.8360668,70.5793103 C34.547503,70.2252874 34.1574074,69.9302682 33.6657801,69.6942529 C33.1741529,69.4582375 32.5863377,69.2812261 31.9023345,69.1632184 C31.2183314,69.0452107 30.491578,68.9862069 29.7220745,68.9862069 C27.6486899,68.9862069 25.9974636,69.4314176 24.7683954,70.3218391 C23.5393272,71.2122605 22.9247931,72.4191571 22.9247931,73.9425287 C22.9247931,75.3157088 23.3522951,76.3831418 24.2072991,77.1448276 C25.062303,77.9065134 26.366184,78.4697318 28.1189421,78.8344828 L28.1189421,78.8344828 L29.401448,79.1241379 C30.0427009,79.2743295 30.4969218,79.445977 30.7641105,79.6390805 C31.0312993,79.8321839 31.1648936,80.1111111 31.1648936,80.4758621 C31.1648936,81.3340996 30.4060776,81.7632184 28.8884456,81.7632184 C27.8410658,81.7632184 26.9219366,81.6237548 26.1310579,81.3448276 C25.3401793,81.0659004 24.634801,80.7440613 24.0149232,80.3793103 C23.7156718,80.5938697 23.4698582,80.867433 23.2774823,81.2 C23.0851064,81.532567 22.9889184,81.9348659 22.9889184,82.4068966 C22.9889184,82.9218391 23.1385441,83.3724138 23.4377955,83.7586207 C23.7370469,84.1448276 24.1538613,84.4666667 24.6882388,84.7241379 C25.2226162,84.9816092 25.8585254,85.1747126 26.5959663,85.3034483 C27.3334072,85.4321839 28.1510047,85.4965517 29.0487589,85.4965517 Z M49.1199764,85.4965517 C50.338357,85.4965517 51.428487,85.389272 52.3903664,85.1747126 C53.3522459,84.9601533 54.1644996,84.6490421 54.8271277,84.2413793 C55.2332545,84.005364 55.5805999,83.7210728 55.8691637,83.3885057 C56.1577275,83.0559387 56.3020095,82.610728 56.3020095,82.0528736 L56.3020095,82.0528736 L56.3020095,74.7793103 C56.3020095,73.7923372 56.1256649,72.9340996 55.7729758,72.2045977 C55.4202866,71.4750958 54.9233156,70.8743295 54.2820626,70.4022989 C53.6408097,69.9302682 52.8659624,69.5816092 51.9575207,69.3563218 C51.049079,69.1310345 50.0391056,69.0183908 48.9276005,69.0183908 C48.1367218,69.0183908 47.3298119,69.0773946 46.5068706,69.1954023 C45.6839293,69.31341 44.9625197,69.4904215 44.3426418,69.7264368 C43.3593873,70.1340996 42.86776,70.8099617 42.86776,71.754023 C42.86776,72.1616858 42.9586042,72.5425287 43.1402926,72.8965517 C43.3219809,73.2505747 43.5410757,73.51341 43.7975768,73.6850575 C44.4174547,73.4275862 45.1174892,73.2022989 45.8976803,73.0091954 C46.6778714,72.816092 47.4740938,72.7195402 48.2863475,72.7195402 C49.3337273,72.7195402 50.1352935,72.8804598 50.6910461,73.2022989 C51.2467987,73.5241379 51.5246749,74.0283525 51.5246749,74.7149425 L51.5246749,74.7149425 L51.5246749,75.0689655 L47.2603428,75.5195402 C45.4434594,75.7126437 44.0968282,76.1954023 43.2204492,76.9678161 C42.3440701,77.7402299 41.9058806,78.8666667 41.9058806,80.3471264 C41.9058806,82.0850575 42.5578211,83.3777778 43.8617021,84.2252874 C45.1655831,85.0727969 46.9183412,85.4965517 49.1199764,85.4965517 Z M49.1199764,81.8597701 C48.2435973,81.8597701 47.6130319,81.7095785 47.2282801,81.4091954 C46.8435284,81.1088123 46.6511525,80.7011494 46.6511525,80.1862069 C46.6511525,79.6927203 46.8595597,79.3226054 47.2763741,79.0758621 C47.6931885,78.8291188 48.2435973,78.6735632 48.9276005,78.6091954 L48.9276005,78.6091954 L51.5567376,78.383908 L51.5567376,81.3448276 C51.3216115,81.4950192 50.9742662,81.6183908 50.5147015,81.7149425 C50.0551369,81.8114943 49.5902285,81.8597701 49.1199764,81.8597701 Z M65.8887411,85.4643678 C67.171247,85.4643678 68.3308461,85.2873563 69.3675384,84.9333333 C70.4042307,84.5793103 71.2912973,84.0536398 72.0287382,83.3563218 C72.7661791,82.6590038 73.337963,81.7954023 73.7440898,80.7655172 C74.1502167,79.7356322 74.3532801,78.5448276 74.3532801,77.1931034 C74.3532801,75.8413793 74.1609043,74.6559387 73.7761525,73.6367816 C73.3914007,72.6176245 72.862367,71.764751 72.1890514,71.0781609 C71.5157358,70.3915709 70.7195134,69.8766284 69.8003842,69.5333333 C68.8812549,69.1900383 67.8980004,69.0183908 66.8506206,69.0183908 C66.1879925,69.0183908 65.5788022,69.0881226 65.0230496,69.2275862 C64.4672971,69.3670498 63.9756698,69.5333333 63.5481678,69.7264368 L63.5481678,69.7264368 L63.5481678,66.0574713 C63.5481678,65.1563218 63.3397606,64.5448276 62.9229462,64.2229885 C62.5061318,63.9011494 61.8167849,63.7402299 60.8549054,63.7402299 C60.3846533,63.7402299 59.9571513,63.7724138 59.5723995,63.8367816 C59.1876478,63.9011494 58.8777088,63.9655172 58.6425827,64.0298851 L58.6425827,64.0298851 L58.6425827,81.3770115 C58.6425827,82.3854406 59.1021474,83.2007663 60.0212766,83.8229885 C60.6625296,84.2735632 61.4640957,84.6597701 62.4259752,84.9816092 C63.3878546,85.3034483 64.5421099,85.4643678 65.8887411,85.4643678 Z M65.8246158,81.5701149 C65.3116135,81.5701149 64.8627364,81.5164751 64.4779846,81.4091954 C64.0932329,81.3019157 63.7726064,81.1624521 63.5161052,80.9908046 L63.5161052,80.9908046 L63.5161052,73.6206897 C63.8581068,73.4061303 64.2268272,73.2291188 64.6222665,73.0896552 C65.0177059,72.9501916 65.4612392,72.8804598 65.9528664,72.8804598 C66.9788712,72.8804598 67.7964687,73.2237548 68.405659,73.9103448 C69.0148493,74.5969349 69.3194444,75.6911877 69.3194444,77.1931034 C69.3194444,78.6521073 69.0041617,79.7463602 68.3735963,80.4758621 C67.7430309,81.205364 66.8933708,81.5701149 65.8246158,81.5701149 Z M83.4590721,85.4643678 C84.6988278,85.4643678 85.8210205,85.2712644 86.8256501,84.8850575 C87.8302797,84.4988506 88.6906275,83.9517241 89.4066933,83.2436782 C90.1227591,82.5356322 90.6731678,81.6720307 91.0579196,80.6528736 C91.4426714,79.6337165 91.6350473,78.4911877 91.6350473,77.2252874 C91.6350473,75.9808429 91.4373276,74.8544061 91.0418883,73.845977 C90.646449,72.8375479 90.0906964,71.9739464 89.3746306,71.2551724 C88.6585648,70.5363985 87.7982171,69.983908 86.7935875,69.5977011 C85.7889578,69.2114943 84.6774527,69.0183908 83.4590721,69.0183908 C82.2406915,69.0183908 81.1238426,69.2114943 80.1085254,69.5977011 C79.0932082,69.983908 78.2275167,70.5310345 77.5114509,71.2390805 C76.7953851,71.9471264 76.2396326,72.810728 75.8441933,73.8298851 C75.4487539,74.8490421 75.2510343,75.9808429 75.2510343,77.2252874 C75.2510343,78.5126437 75.4434102,79.6659004 75.8281619,80.6850575 C76.2129137,81.7042146 76.7633225,82.5678161 77.4793883,83.2758621 C78.1954541,83.983908 79.0611456,84.5256705 80.0764628,84.9011494 C81.0917799,85.2766284 82.2193164,85.4643678 83.4590721,85.4643678 Z M83.4590721,81.6022989 C82.4330674,81.6022989 81.6475325,81.2321839 81.1024675,80.491954 C80.5574025,79.7517241 80.28487,78.6628352 80.28487,77.2252874 C80.28487,75.8306513 80.5627463,74.7578544 81.1184988,74.0068966 C81.6742514,73.2559387 82.4544425,72.8804598 83.4590721,72.8804598 C84.4637017,72.8804598 85.2438928,73.2613027 85.7996454,74.0229885 C86.355398,74.7846743 86.6332742,75.8521073 86.6332742,77.2252874 C86.6332742,78.6413793 86.3607417,79.7249042 85.8156767,80.4758621 C85.2706117,81.2268199 84.4850768,81.6022989 83.4590721,81.6022989 Z M100.965278,85.4643678 C102.183658,85.4643678 103.295164,85.3409962 104.299793,85.0942529 C105.304423,84.8475096 106.148739,84.5095785 106.832742,84.0804598 C107.709121,83.5440613 108.147311,82.7716475 108.147311,81.7632184 L108.147311,81.7632184 L108.147311,71.5931034 C108.147311,70.691954 107.93356,70.0804598 107.506058,69.7586207 C107.078556,69.4367816 106.383865,69.2758621 105.421986,69.2758621 C104.951734,69.2758621 104.524232,69.308046 104.13948,69.3724138 C103.754728,69.4367816 103.455477,69.5011494 103.241726,69.5655172 L103.241726,69.5655172 L103.241726,81.1517241 C103.04935,81.2590038 102.76613,81.3609195 102.392066,81.4574713 C102.018001,81.554023 101.553093,81.6022989 100.99734,81.6022989 C100.099586,81.6022989 99.4048956,81.3931034 98.9132683,80.9747126 C98.4216411,80.5563218 98.1758274,79.8643678 98.1758274,78.8988506 L98.1758274,78.8988506 L98.1758274,71.5931034 C98.1758274,70.691954 97.9674202,70.0804598 97.5506058,69.7586207 C97.1337914,69.4367816 96.4444444,69.2758621 95.482565,69.2758621 C95.0123128,69.2758621 94.5848109,69.308046 94.2000591,69.3724138 C93.8153073,69.4367816 93.5053684,69.5011494 93.2702423,69.5655172 L93.2702423,69.5655172 L93.2702423,78.9310345 C93.2702423,80.0896552 93.4572744,81.0766284 93.8313387,81.891954 C94.2054029,82.7072797 94.7290928,83.3831418 95.4024084,83.9195402 C96.075724,84.4559387 96.882634,84.8475096 97.8231383,85.0942529 C98.7636426,85.3409962 99.8110225,85.4643678 100.965278,85.4643678 Z M116.227098,85.4643678 C117.680605,85.4643678 118.701266,85.2229885 119.289081,84.7402299 C119.876896,84.2574713 120.170804,83.640613 120.170804,82.8896552 C120.170804,82.5249042 120.106678,82.2030651 119.978428,81.9241379 C119.850177,81.6452107 119.689864,81.3984674 119.497488,81.183908 C119.240987,81.2911877 118.931048,81.3823755 118.567671,81.4574713 C118.204295,81.532567 117.862293,81.5701149 117.541667,81.5701149 C116.857664,81.5701149 116.323286,81.4360153 115.938534,81.1678161 C115.553783,80.8996169 115.361407,80.4651341 115.361407,79.8643678 L115.361407,79.8643678 L115.361407,73.6206897 L118.599734,73.6206897 C119.091361,73.6206897 119.492144,73.4704981 119.802083,73.1701149 C120.112022,72.8697318 120.266992,72.3762452 120.266992,71.6896552 C120.266992,71.3249042 120.213554,70.9762452 120.106678,70.6436782 C119.999803,70.3111111 119.892928,70.0375479 119.786052,69.8229885 L119.786052,69.8229885 L115.361407,69.8229885 L115.361407,67.7310345 C115.361407,66.851341 115.152999,66.2452107 114.736185,65.9126437 C114.319371,65.5800766 113.640711,65.4137931 112.700207,65.4137931 C112.25133,65.4137931 111.834515,65.451341 111.449764,65.5264368 C111.065012,65.6015326 110.755073,65.6712644 110.519947,65.7356322 L110.519947,65.7356322 L110.519947,80.1862069 C110.519947,82.0528736 111.022262,83.3992337 112.026891,84.2252874 C113.031521,85.051341 114.43159,85.4643678 116.227098,85.4643678 Z M129.597222,91 C130.067474,91 130.494976,90.9678161 130.879728,90.9034483 C131.26448,90.8390805 131.563731,90.7747126 131.777482,90.7103448 L131.777482,90.7103448 L131.777482,84.9494253 C132.162234,85.0996169 132.589736,85.2229885 133.059988,85.3195402 C133.53024,85.416092 134.043243,85.4643678 134.598995,85.4643678 C135.731875,85.4643678 136.779255,85.2873563 137.741135,84.9333333 C138.703014,84.5793103 139.536643,84.0536398 140.242021,83.3563218 C140.9474,82.6590038 141.497808,81.7900383 141.893248,80.7494253 C142.288687,79.7088123 142.486407,78.5126437 142.486407,77.1609195 C142.486407,75.7448276 142.277999,74.5218391 141.861185,73.491954 C141.444371,72.462069 140.861899,71.6145594 140.113771,70.9494253 C139.365642,70.2842912 138.473232,69.7961686 137.43654,69.4850575 C136.399847,69.1739464 135.261623,69.0183908 134.021868,69.0183908 C132.803487,69.0183908 131.691982,69.1524904 130.687352,69.4206897 C129.682723,69.6888889 128.859781,70.0268199 128.218528,70.4344828 C127.791026,70.71341 127.459712,71.0298851 127.224586,71.383908 C126.98946,71.737931 126.871897,72.1938697 126.871897,72.7517241 L126.871897,72.7517241 L126.871897,88.6827586 C126.871897,89.583908 127.085648,90.1954023 127.51315,90.5172414 C127.940652,90.8390805 128.635343,91 129.597222,91 Z M133.861554,81.5701149 C133.434052,81.5701149 133.049301,81.5218391 132.707299,81.4252874 C132.365297,81.3287356 132.044671,81.194636 131.74542,81.0229885 L131.74542,81.0229885 L131.74542,73.4597701 C132.044671,73.3095785 132.375985,73.1754789 132.739362,73.0574713 C133.102738,72.9394636 133.53024,72.8804598 134.021868,72.8804598 C135.111998,72.8804598 135.961658,73.2130268 136.570848,73.8781609 C137.180038,74.543295 137.484634,75.6375479 137.484634,77.1609195 C137.484634,78.6413793 137.169351,79.7463602 136.538785,80.4758621 C135.90822,81.205364 135.01581,81.5701149 133.861554,81.5701149 Z M152.137264,85.4643678 C152.992268,85.4643678 153.777802,85.405364 154.493868,85.2873563 C155.209934,85.1693487 155.829812,84.9869732 156.353502,84.7402299 C156.877192,84.4934866 157.288662,84.1877395 157.587914,83.8229885 C157.887165,83.4582375 158.036791,83.0291188 158.036791,82.5356322 C158.036791,82.1279693 157.929915,81.7524904 157.716164,81.4091954 C157.502413,81.0659004 157.235225,80.7869732 156.914598,80.5724138 C156.422971,80.8727969 155.781718,81.1463602 154.990839,81.3931034 C154.199961,81.6398467 153.355644,81.7632184 152.45789,81.7632184 C151.474636,81.7632184 150.608944,81.5754789 149.860816,81.2 C149.112687,80.8245211 148.588997,80.1862069 148.289746,79.2850575 L148.289746,79.2850575 L156.626034,78.0298851 C157.288662,77.9226054 157.801665,77.697318 158.165041,77.354023 C158.528418,77.010728 158.710106,76.4957854 158.710106,75.8091954 C158.710106,74.8222222 158.528418,73.9103448 158.165041,73.0735632 C157.801665,72.2367816 157.294006,71.5180077 156.642066,70.9172414 C155.990125,70.3164751 155.209934,69.8498084 154.301492,69.5172414 C153.393051,69.1846743 152.393765,69.0183908 151.303635,69.0183908 C150.299005,69.0183908 149.321094,69.1739464 148.369902,69.4850575 C147.418711,69.7961686 146.574394,70.2842912 145.836953,70.9494253 C145.099512,71.6145594 144.511697,72.451341 144.073508,73.4597701 C143.635318,74.4681992 143.416223,75.6590038 143.416223,77.0321839 C143.416223,78.4482759 143.635318,79.6819923 144.073508,80.7333333 C144.511697,81.7846743 145.115544,82.6590038 145.885047,83.3563218 C146.654551,84.0536398 147.57368,84.5793103 148.642435,84.9333333 C149.71119,85.2873563 150.876133,85.4643678 152.137264,85.4643678 Z M147.969119,75.9701149 C148.075995,74.897318 148.434028,74.0766284 149.043218,73.508046 C149.652408,72.9394636 150.416568,72.6551724 151.335697,72.6551724 C152.233452,72.6551724 152.906767,72.9019157 153.355644,73.3954023 C153.804521,73.8888889 154.050335,74.4145594 154.093085,74.9724138 L154.093085,74.9724138 L147.969119,75.9701149 Z M167.751773,85.4643678 C168.991529,85.4643678 170.113721,85.2712644 171.118351,84.8850575 C172.122981,84.4988506 172.983328,83.9517241 173.699394,83.2436782 C174.41546,82.5356322 174.965869,81.6720307 175.350621,80.6528736 C175.735372,79.6337165 175.927748,78.4911877 175.927748,77.2252874 C175.927748,75.9808429 175.730029,74.8544061 175.334589,73.845977 C174.93915,72.8375479 174.383397,71.9739464 173.667332,71.2551724 C172.951266,70.5363985 172.090918,69.983908 171.086288,69.5977011 C170.081659,69.2114943 168.970154,69.0183908 167.751773,69.0183908 C166.533392,69.0183908 165.416544,69.2114943 164.401226,69.5977011 C163.385909,69.983908 162.520218,70.5310345 161.804152,71.2390805 C161.088086,71.9471264 160.532334,72.810728 160.136894,73.8298851 C159.741455,74.8490421 159.543735,75.9808429 159.543735,77.2252874 C159.543735,78.5126437 159.736111,79.6659004 160.120863,80.6850575 C160.505615,81.7042146 161.056023,82.5678161 161.772089,83.2758621 C162.488155,83.983908 163.353847,84.5256705 164.369164,84.9011494 C165.384481,85.2766284 166.512017,85.4643678 167.751773,85.4643678 Z M167.751773,81.6022989 C166.725768,81.6022989 165.940233,81.2321839 165.395168,80.491954 C164.850103,79.7517241 164.577571,78.6628352 164.577571,77.2252874 C164.577571,75.8306513 164.855447,74.7578544 165.4112,74.0068966 C165.966952,73.2559387 166.747143,72.8804598 167.751773,72.8804598 C168.756403,72.8804598 169.536594,73.2613027 170.092346,74.0229885 C170.648099,74.7846743 170.925975,75.8521073 170.925975,77.2252874 C170.925975,78.6413793 170.653443,79.7249042 170.108378,80.4758621 C169.563313,81.2268199 168.777778,81.6022989 167.751773,81.6022989 Z M180.288268,91 C180.75852,91 181.186022,90.9678161 181.570774,90.9034483 C181.955526,90.8390805 182.254777,90.7747126 182.468528,90.7103448 L182.468528,90.7103448 L182.468528,84.9494253 C182.85328,85.0996169 183.280782,85.2229885 183.751034,85.3195402 C184.221286,85.416092 184.734289,85.4643678 185.290041,85.4643678 C186.422922,85.4643678 187.470301,85.2873563 188.432181,84.9333333 C189.39406,84.5793103 190.227689,84.0536398 190.933067,83.3563218 C191.638446,82.6590038 192.188854,81.7900383 192.584294,80.7494253 C192.979733,79.7088123 193.177453,78.5126437 193.177453,77.1609195 C193.177453,75.7448276 192.969046,74.5218391 192.552231,73.491954 C192.135417,72.462069 191.552945,71.6145594 190.804817,70.9494253 C190.056688,70.2842912 189.164278,69.7961686 188.127586,69.4850575 C187.090893,69.1739464 185.952669,69.0183908 184.712914,69.0183908 C183.494533,69.0183908 182.383028,69.1524904 181.378398,69.4206897 C180.373769,69.6888889 179.550827,70.0268199 178.909574,70.4344828 C178.482072,70.71341 178.150758,71.0298851 177.915632,71.383908 C177.680506,71.737931 177.562943,72.1938697 177.562943,72.7517241 L177.562943,72.7517241 L177.562943,88.6827586 C177.562943,89.583908 177.776694,90.1954023 178.204196,90.5172414 C178.631698,90.8390805 179.326389,91 180.288268,91 Z M184.5526,81.5701149 C184.125099,81.5701149 183.740347,81.5218391 183.398345,81.4252874 C183.056344,81.3287356 182.735717,81.194636 182.436466,81.0229885 L182.436466,81.0229885 L182.436466,73.4597701 C182.735717,73.3095785 183.067031,73.1754789 183.430408,73.0574713 C183.793784,72.9394636 184.221286,72.8804598 184.712914,72.8804598 C185.803044,72.8804598 186.652704,73.2130268 187.261894,73.8781609 C187.871085,74.543295 188.17568,75.6375479 188.17568,77.1609195 C188.17568,78.6413793 187.860397,79.7463602 187.229832,80.4758621 C186.599266,81.205364 185.706856,81.5701149 184.5526,81.5701149 Z M197.698286,85.2068966 C198.168538,85.2068966 198.59604,85.1800766 198.980792,85.1264368 C199.365544,85.0727969 199.675483,85.0137931 199.910609,84.9494253 L199.910609,84.9494253 L199.910609,66.0574713 C199.910609,65.1563218 199.696858,64.5448276 199.269356,64.2229885 C198.841854,63.9011494 198.157851,63.7402299 197.217346,63.7402299 C196.747094,63.7402299 196.314248,63.7724138 195.918809,63.8367816 C195.52337,63.9011494 195.218775,63.9655172 195.005024,64.0298851 L195.005024,64.0298851 L195.005024,82.9218391 C195.005024,83.8229885 195.213431,84.4291188 195.630245,84.7402299 C196.04706,85.051341 196.736407,85.2068966 197.698286,85.2068966 Z M210.427157,85.4643678 C211.282161,85.4643678 212.067696,85.405364 212.783762,85.2873563 C213.499828,85.1693487 214.119705,84.9869732 214.643395,84.7402299 C215.167085,84.4934866 215.578556,84.1877395 215.877807,83.8229885 C216.177059,83.4582375 216.326684,83.0291188 216.326684,82.5356322 C216.326684,82.1279693 216.219809,81.7524904 216.006058,81.4091954 C215.792307,81.0659004 215.525118,80.7869732 215.204492,80.5724138 C214.712864,80.8727969 214.071612,81.1463602 213.280733,81.3931034 C212.489854,81.6398467 211.645538,81.7632184 210.747784,81.7632184 C209.764529,81.7632184 208.898838,81.5754789 208.150709,81.2 C207.402581,80.8245211 206.878891,80.1862069 206.579639,79.2850575 L206.579639,79.2850575 L214.915928,78.0298851 C215.578556,77.9226054 216.091558,77.697318 216.454935,77.354023 C216.818312,77.010728 217,76.4957854 217,75.8091954 C217,74.8222222 216.818312,73.9103448 216.454935,73.0735632 C216.091558,72.2367816 215.5839,71.5180077 214.931959,70.9172414 C214.280019,70.3164751 213.499828,69.8498084 212.591386,69.5172414 C211.682944,69.1846743 210.683658,69.0183908 209.593528,69.0183908 C208.588899,69.0183908 207.610988,69.1739464 206.659796,69.4850575 C205.708604,69.7961686 204.864288,70.2842912 204.126847,70.9494253 C203.389406,71.6145594 202.801591,72.451341 202.363401,73.4597701 C201.925212,74.4681992 201.706117,75.6590038 201.706117,77.0321839 C201.706117,78.4482759 201.925212,79.6819923 202.363401,80.7333333 C202.801591,81.7846743 203.405437,82.6590038 204.174941,83.3563218 C204.944444,84.0536398 205.863574,84.5793103 206.932329,84.9333333 C208.001084,85.2873563 209.166026,85.4643678 210.427157,85.4643678 Z M206.259013,75.9701149 C206.365888,74.897318 206.723921,74.0766284 207.333112,73.508046 C207.942302,72.9394636 208.706462,72.6551724 209.625591,72.6551724 C210.523345,72.6551724 211.196661,72.9019157 211.645538,73.3954023 C212.094415,73.8888889 212.340229,74.4145594 212.382979,74.9724138 L212.382979,74.9724138 L206.259013,75.9701149 Z" id="It’saboutpeople" fill="#FF5959" fill-rule="nonzero"></path>
    </g>
</svg>